<svg id="Layer_1" data-name="Layer 1" xmlns="http://www.w3.org/2000/svg" viewBox="0 0 192 192"><defs><style>.cls-1{fill:#fafafa;}.cls-2{fill:#ffdf20;}</style></defs><path class="cls-1" d="M41.69,37.48c.32,9.78-6.85,17.6-18.25,17.6-10.11,0-17.28-7.82-17.28-17.6A17.48,17.48,0,0,1,24.09,19.56C34.84,19.56,41.69,27.38,41.69,37.48ZM11.55,170.26V76.64a7.24,7.24,0,0,1,7.24-7.24H29.94a7.24,7.24,0,0,1,7.24,7.24v93.62a7.24,7.24,0,0,1-7.24,7.24H18.79A7.24,7.24,0,0,1,11.55,170.26Z"/><path class="cls-1" d="M130.1,180.4A81.93,81.93,0,0,1,97.8,174a83.63,83.63,0,0,1-44.23-43.67,78.41,78.41,0,0,1-6.48-31.84,78.45,78.45,0,0,1,6.48-31.84A83.57,83.57,0,0,1,97.8,23a81.76,81.76,0,0,1,32.3-6.37,93.44,93.44,0,0,1,20.69,2.27,72.41,72.41,0,0,1,18.42,6.83,12.23,12.23,0,0,1,5.12,4.89A12.69,12.69,0,0,1,176,36.9a14.8,14.8,0,0,1-3.64,9.78A11.66,11.66,0,0,1,163.07,51a16.54,16.54,0,0,1-3.75-.45,17.24,17.24,0,0,1-3.75-1.37,62,62,0,0,0-12.06-3.86A63.84,63.84,0,0,0,130.1,44a51,51,0,0,0-26.95,7.39A54.89,54.89,0,0,0,83.82,71.13a53.74,53.74,0,0,0-7.17,27.4,53.89,53.89,0,0,0,7.17,27.29,54.5,54.5,0,0,0,19.33,19.9,50.87,50.87,0,0,0,26.95,7.39,91.9,91.9,0,0,0,15-1.36,58,58,0,0,0,13.41-3.64l-2,6.82V116l3.86,3.41H135.1a13.61,13.61,0,0,1-9.89-3.86,14,14,0,0,1,0-19.56,13.62,13.62,0,0,1,9.89-3.87h37.3a13.08,13.08,0,0,1,9.78,4A13.69,13.69,0,0,1,186,106v48.21a12.39,12.39,0,0,1-2.16,7.51,19.35,19.35,0,0,1-4.89,4.77,98.46,98.46,0,0,1-22.85,10.12A89.5,89.5,0,0,1,130.1,180.4Z"/><path class="cls-2" d="M41.48,37.45c.33,9.78-6.84,17.6-18.25,17.6C13.13,55.05,6,47.23,6,37.45A17.48,17.48,0,0,1,23.88,19.52C34.64,19.52,41.48,27.35,41.48,37.45Z"/></svg>